<?xml version="1.0" encoding="utf-8"?>
<!-- Generator: Adobe Illustrator 22.1.0, SVG Export Plug-In . SVG Version: 6.00 Build 0)  -->
<svg version="1.1" id="Layer_1" xmlns="http://www.w3.org/2000/svg" xmlns:xlink="http://www.w3.org/1999/xlink" x="0px" y="0px"
	 viewBox="0 0 458.1 153.6" style="enable-background:new 0 0 458.1 153.6;" xml:space="preserve">
<style type="text/css">
	.st0{fill:#19F3BE;}
	.st1{fill:#FF036A;}
	.st2{fill:#4BAFFF;}
</style>
<title>Asset 1</title>
<path class="st0" d="M99.3,95.2c-24.2,0-43.9-19.7-43.9-43.9S75.1,7.4,99.3,7.4s43.9,19.7,43.9,43.9
	C143.1,75.5,123.5,95.1,99.3,95.2z M99.3,11.4c-22,0-39.9,17.9-39.9,39.9s17.9,39.9,39.9,39.9s39.9-17.9,39.9-39.9l0,0
	C139.2,29.3,121.3,11.4,99.3,11.4z"/>
<path class="st1" d="M50.5,102.1c-0.5,0-1-0.2-1.4-0.6L0.3,52.7c-0.8-0.7-0.8-2-0.1-2.7c0,0,0,0,0.1-0.1L49.1,1.1
	c0.7-0.8,2-0.8,2.7-0.1c0,0,0,0,0.1,0.1l48.8,48.8c0.8,0.7,0.8,2,0.1,2.7c0,0,0,0-0.1,0.1L52,101.5
	C51.6,101.9,51.1,102.1,50.5,102.1z M4.6,51.3l46,46l46-46l-46-46L4.6,51.3z"/>
<path class="st2" d="M72.1,154.1c-0.4,0-0.7-0.1-1-0.3l-41.7-24.1c-0.6-0.4-1-1-1-1.7V79.9c0-0.7,0.4-1.4,1-1.7l41.7-24
	c0.6-0.4,1.4-0.4,2,0l41.7,24c0.6,0.4,1,1,1,1.7V128c0,0.7-0.4,1.4-1,1.7l-41.7,24C72.8,153.9,72.5,154.1,72.1,154.1z M32.3,126.9
	L72,149.8l39.7-22.9V81.1L72,58.2L32.3,81.1V126.9z"/>
<path class="st0" d="M99.3,95.2c-1.1,0-2-0.9-2-2s0.9-2,2-2c22-0.1,39.8-17.9,39.9-39.9c0-1.1,0.9-2,2-2s2,0.9,2,2
	C143.2,75.5,123.6,95.2,99.3,95.2L99.3,95.2z"/>
<path class="st1" d="M76.8,75.9c-0.5,0-1-0.2-1.4-0.6c-0.8-0.7-0.8-2-0.1-2.7c0,0,0,0,0.1-0.1L97.9,50c0.7-0.9,1.9-1.1,2.8-0.4
	c0.9,0.7,1.1,1.9,0.4,2.8c-0.1,0.2-0.2,0.3-0.4,0.4L78.2,75.3C77.8,75.7,77.3,75.9,76.8,75.9z"/>
<path class="st2" d="M159.1,50.6v-0.2c0-11.4,9.1-21.4,20.8-21.4c7.5,0,12.2,3.3,16,7.2c0.2,0.2,0.2,0.5,0,0.7l0,0l-2.1,2.2
	c-0.2,0.2-0.5,0.2-0.7,0l0,0c-3.4-3.4-7.4-6.4-13.2-6.4c-9.3,0-16.5,7.8-16.5,17.5v0.2c0,9.8,7.4,17.7,16.8,17.7
	c5.6,0,10-2.8,13.4-6.4c0.2-0.2,0.5-0.2,0.7,0l0,0l2,1.7c0.2,0.2,0.2,0.5,0,0.7l0,0c-4.1,4.5-9,7.7-16.3,7.7
	C168.4,71.7,159,62.2,159.1,50.6z"/>
<path class="st2" d="M202,50.6v-0.2c-0.1-11.7,9.2-21.3,20.9-21.4h0.1c11.5,0,20.9,9.3,20.9,20.9c0,0.1,0,0.2,0,0.3v0.2
	c0.1,11.7-9.2,21.3-20.9,21.4h-0.1c-11.5,0-20.9-9.3-20.9-20.9C202,50.8,202,50.7,202,50.6z M239.6,50.6v-0.2
	c0-9.8-7.4-17.7-16.8-17.7c-9.7,0-16.6,7.9-16.6,17.5v0.2c0,9.8,7.4,17.7,16.8,17.7C232.6,68.1,239.6,60.2,239.6,50.6z"/>
<path class="st2" d="M251,50.6v-0.2c0-13.3,10-21.4,19.8-21.4c7.5,0,12.5,3.9,15.9,8.5c0.1,0.2,0.5,0.3,0.7,0.1
	c0.1-0.1,0.2-0.3,0.2-0.4V12.9c0-0.3,0.2-0.5,0.4-0.5c0,0,0,0,0.1,0h2.9c0.3,0,0.5,0.2,0.5,0.4c0,0,0,0,0,0.1v57.4
	c0,0.3-0.2,0.5-0.4,0.5c0,0,0,0-0.1,0h-2.9c-0.3,0-0.5-0.2-0.5-0.4c0,0,0,0,0-0.1v-7c0-0.3-0.2-0.5-0.5-0.5c-0.2,0-0.3,0.1-0.4,0.2
	c-3.5,4.8-8.5,8.8-15.9,8.8C261,71.8,251,63.9,251,50.6z M287.8,50.5v-0.2c0-10.5-8.2-17.5-16.6-17.5c-8.9,0-16,6.5-16,17.4v0.2
	c0,10.7,7.4,17.6,16,17.6C279.6,68,287.8,60.9,287.8,50.5z"/>
<path class="st2" d="M300.3,50.5v-0.2c0-11.8,8.3-21.3,19.4-21.3c11.4,0,18.7,9.3,18.7,21.4v1.1c0,0.3-0.2,0.5-0.4,0.5
	c0,0,0,0-0.1,0h-32.8c-0.3,0-0.5,0.3-0.5,0.6c0.9,9.8,8.1,15.5,16,15.5c5.2,0,10.2-2.2,13.7-6.1c0.2-0.2,0.5-0.2,0.7,0l0,0l2,1.7
	c0.2,0.2,0.2,0.5,0,0.7l0,0c-4.1,4.3-8.9,7.3-16.5,7.3C309.6,71.8,300.3,63.2,300.3,50.5z M333.6,48.5c0.3,0,0.5-0.2,0.5-0.5
	c-0.7-8-5.4-15.3-14.6-15.3c-7.9,0-14.1,6.5-15,15.3c0,0.3,0.2,0.6,0.5,0.6L333.6,48.5L333.6,48.5z"/>
<path class="st2" d="M349.8,63.6v6.7c0,0.3-0.2,0.5-0.4,0.5c0,0,0,0-0.1,0h-2.9c-0.3,0-0.5-0.2-0.5-0.4c0,0,0,0,0-0.1V12.9
	c0-0.3,0.2-0.5,0.4-0.5c0,0,0,0,0.1,0h2.9c0.3,0,0.5,0.2,0.5,0.4c0,0,0,0,0,0.1v24.6c0,0.3,0.2,0.5,0.5,0.5c0.2,0,0.3-0.1,0.4-0.2
	c3.5-4.8,8.5-8.8,15.9-8.8c9.8,0,19.8,7.9,19.8,21.2v0.2c0,13.3-10,21.4-19.8,21.4c-7.5,0-12.5-3.9-15.9-8.5
	C350.5,62.9,349.8,63.1,349.8,63.6z M382.3,50.6v-0.2c0-10.7-7.4-17.6-16-17.6s-16.6,7.1-16.6,17.5v0.2c0,10.5,8.2,17.5,16.6,17.5
	C375.1,68,382.3,61.6,382.3,50.6z"/>
<path class="st2" d="M391.4,59v-0.2c0-8.5,7.3-13.3,17.8-13.3c4.4-0.1,8.7,0.5,12.9,1.6c0.3,0.1,0.5-0.1,0.6-0.4v-0.1v-1.1
	c0-8.2-5-12.5-13.4-12.5c-4.3,0-8.5,1-12.3,3c-0.3,0.1-0.6,0-0.7-0.3l0,0l-1-2.5c-0.1-0.3,0-0.5,0.3-0.7c4.4-2.2,9.1-3.3,14-3.3
	c5.5,0,9.9,1.5,12.9,4.5c2.7,2.7,4.2,6.5,4.2,11.5v24.9c0,0.3-0.2,0.5-0.4,0.5c0,0,0,0-0.1,0h-2.8c-0.3,0-0.5-0.2-0.5-0.4
	c0,0,0,0,0-0.1v-6.3c-3.6,5-9.4,8-15.6,7.8C399.5,71.8,391.4,67.5,391.4,59z M422.8,55.6v-4.2c0-0.2-0.2-0.4-0.4-0.5
	c-4.4-1.2-8.9-1.7-13.5-1.7c-8.6,0-13.4,3.8-13.4,9.5v0.2c0,5.9,5.6,9.4,11.8,9.4C415.7,68.1,422.8,63,422.8,55.6z"/>
<path class="st2" d="M439.8,54.1v16.2c0,0.3-0.2,0.5-0.4,0.5c0,0,0,0-0.1,0h-2.9c-0.3,0-0.5-0.2-0.5-0.4c0,0,0,0,0-0.1V30.5
	c0-0.3,0.2-0.5,0.4-0.5c0,0,0,0,0.1,0h2.9c0.3,0,0.5,0.2,0.5,0.4c0,0,0,0,0,0.1v9c0,0.3,0.2,0.5,0.5,0.5c0.2,0,0.4-0.1,0.4-0.3
	c3.4-6.1,9.5-10.4,16.6-10.4c0.3,0,0.5,0.2,0.5,0.4c0,0,0,0,0,0.1v3.3c0,0.3-0.2,0.5-0.4,0.5c0,0,0,0-0.1,0
	C442.3,34,439.8,46.3,439.8,54.1z"/>
<g>
	<path class="st2" d="M166.2,93.4h15.6c4.3,0,7.7,1.2,9.8,3.3c1.6,1.6,2.4,3.6,2.4,5.9v0.1c0,5.1-3.3,7.7-6.4,9
		c4.5,1.2,8.5,3.8,8.5,9v0.1c0,6.3-5.4,10.3-13.6,10.3h-16.4L166.2,93.4L166.2,93.4z M191.2,103c0-4.2-3.4-7-9.5-7H169v14.9h12.5
		C187.2,110.9,191.2,108.1,191.2,103L191.2,103z M181.8,113.4H169v15.2h13.7c6.5,0,10.6-3,10.6-7.7v-0.1
		C193.3,116.1,189.3,113.4,181.8,113.4z"/>
	<path class="st2" d="M204.6,103.7h2.6v7.8c2.2-4.9,6.8-8.5,12.2-8.3v2.9h-0.3c-6.4,0-11.9,4.8-11.9,13.8v11.3h-2.6V103.7z"/>
	<path class="st2" d="M226.3,92.9h3.3v3.6h-3.3V92.9z M226.6,103.7h2.6v27.5h-2.6V103.7z"/>
	<path class="st2" d="M239.1,135.8l1.6-2.2c3.3,2.5,7.1,3.9,11.1,3.9c6.3,0,10.8-3.6,10.8-10.7v-4c-2.4,3.4-6.1,6.4-11.5,6.4
		c-6.6,0-13.2-5.1-13.2-13v-0.1c0-7.9,6.6-13.1,13.2-13.1c5.5,0,9.2,2.9,11.5,6.2v-5.5h2.6V127c0,4-1.3,7.1-3.5,9.3
		c-2.4,2.4-5.9,3.7-10,3.7C247.2,140,242.9,138.6,239.1,135.8z M262.8,116.1L262.8,116.1c0-6.5-5.7-10.6-11.4-10.6
		c-5.8,0-10.6,4-10.6,10.4v0.1c0,6.2,5,10.5,10.6,10.5C257.1,126.6,262.8,122.4,262.8,116.1z"/>
	<path class="st2" d="M275.3,91.8h2.6v17c1.8-3.2,4.9-5.8,9.9-5.8c7,0,11,4.8,11,11.3v16.9h-2.6v-16.4c0-5.7-3.2-9.4-8.8-9.4
		c-5.4,0-9.6,4.1-9.6,9.8v15.9h-2.6V91.8H275.3z"/>
	<path class="st2" d="M309.9,124.1v-18h-4v-2.4h4v-8.8h2.6v8.8h9.7v2.4h-9.7v17.8c0,3.9,2.3,5.3,5.5,5.3c1.4,0,2.5-0.3,4.1-1v2.5
		c-1.4,0.6-2.8,1-4.5,1C313.3,131.7,309.9,129.4,309.9,124.1z"/>
	<path class="st2" d="M327.3,117.5L327.3,117.5c0-7.8,6-14.5,14.2-14.5s14.1,6.6,14.1,14.3v0.1c0,7.7-6,14.4-14.2,14.4
		C333.3,131.9,327.3,125.3,327.3,117.5z M352.8,117.5L352.8,117.5c0-6.7-5-12-11.3-12c-6.5,0-11.2,5.3-11.2,11.8v0.1
		c0,6.6,5,11.9,11.3,11.9C348.1,129.4,352.8,124,352.8,117.5z"/>
	<path class="st2" d="M363.8,103.7h2.6v5.1c1.8-3.2,4.9-5.8,9.9-5.8c7,0,11,4.8,11,11.3v16.9h-2.6v-16.4c0-5.7-3.2-9.4-8.8-9.4
		c-5.4,0-9.6,4.1-9.6,9.8v15.9h-2.6v-27.4H363.8z"/>
</g>
</svg>
