<?xml version="1.0" encoding="utf-8"?>
<!-- Generator: Adobe Illustrator 22.1.0, SVG Export Plug-In . SVG Version: 6.00 Build 0)  -->
<svg version="1.1" id="Layer_1" xmlns="http://www.w3.org/2000/svg" xmlns:xlink="http://www.w3.org/1999/xlink" x="0px" y="0px"
	 viewBox="0 0 356 153.6" style="enable-background:new 0 0 356 153.6;" xml:space="preserve">
<style type="text/css">
	.st0{fill:#19F3BE;}
	.st1{fill:#FF036A;}
	.st2{fill:#4BAFFF;}
</style>
<title>git-logo</title>
<path class="st0" d="M99.6,94.7c-24.2,0-43.9-19.7-43.9-43.9S75.4,6.9,99.6,6.9c24.2,0,43.9,19.7,43.9,43.9
	C143.5,75,123.8,94.7,99.6,94.7z M99.6,10.9c-22,0-39.9,17.9-39.9,39.9s17.9,39.9,39.9,39.9s39.9-17.9,39.9-39.9l0,0
	C139.5,28.8,121.6,11,99.6,10.9z"/>
<path class="st1" d="M50.8,101.6c-0.5,0-1-0.2-1.4-0.6L0.6,52.2c-0.8-0.7-0.8-1.9-0.1-2.7c0,0,0,0,0,0l0.1-0.1L49.4,0.6
	c0.7-0.8,1.9-0.8,2.7-0.1c0,0,0,0,0,0l0.1,0.1L101,49.4c0.8,0.7,0.8,1.9,0.1,2.7c0,0,0,0,0,0l-0.1,0.1L52.3,101
	C51.9,101.4,51.4,101.6,50.8,101.6z M4.9,50.8l46,46l46-46l-46-46L4.9,50.8z"/>
<path class="st2" d="M72.4,153.6c-0.4,0-0.7-0.1-1-0.3l-41.7-24.1c-0.6-0.4-1-1-1-1.7V79.4c0-0.7,0.4-1.4,1-1.7l41.7-24
	c0.6-0.4,1.4-0.4,2,0l41.7,24c0.6,0.4,1,1,1,1.7v48.1c0,0.7-0.4,1.4-1,1.7l-41.7,24C73.1,153.4,72.8,153.6,72.4,153.6z M32.6,126.4
	l39.7,22.9l39.7-22.9V80.6L72.3,57.7L32.6,80.6L32.6,126.4z"/>
<path class="st0" d="M99.6,94.7c-1.1,0-2-0.9-2-2s0.9-2,2-2c22-0.1,39.8-17.9,39.9-39.9c0-1.1,0.9-2,2-2s2,0.9,2,2
	c0,24.2-19.6,43.9-43.8,43.9H99.6z"/>
<path class="st1" d="M77.1,75.4c-0.5,0-1-0.2-1.4-0.6c-0.8-0.7-0.8-1.9-0.1-2.7c0,0,0,0,0,0l0.1-0.1l22.5-22.5
	c0.7-0.9,1.9-1.1,2.8-0.4c0.9,0.7,1.1,1.9,0.4,2.8c0,0,0,0,0,0c-0.1,0.2-0.2,0.3-0.4,0.4L78.5,74.8C78.1,75.2,77.6,75.4,77.1,75.4z"
	/>
<path class="st1" d="M151.5,107.3V107c0-24.2,17.5-46.3,44.3-46.3c14.6,0,23.8,4.3,32.8,11.8l-4.3,5c-7-6.1-15.2-10.7-28.8-10.7
	c-21.8,0-37,18.4-37,40v0.3c0,23.2,14.5,40.4,38.4,40.4c11.4,0,22-4.7,28.5-10.2v-25.7h-29.9v-6.1h36.3v34.5
	c-8.1,7.2-20.6,13.4-35.2,13.4C168.3,153.4,151.5,132.5,151.5,107.3z"/>
<path class="st0" d="M256.7,62.3h6.7v89.6h-6.7V62.3z"/>
<path class="st2" d="M315.7,68.4h-31.2v-6.1h69.1v6.1h-31.2v83.4h-6.7V68.4z"/>
</svg>
