<svg id="brand" class="brand-logo brand-logo--grey" viewBox="0 0 173 28" version="1.1" xmlns="http://www.w3.org/2000/svg" xmlns:xlink="http://www.w3.org/1999/xlink" xml:space="preserve" style="fill-rule:evenodd;clip-rule:evenodd;stroke-linejoin:round;stroke-miterlimit:1.41421;">
          <g>
  <path d="M1,18.3464789 L1,7.65352113 C1,2.6 5.3943662,0 10.6309859,0 C15.8676056,0 20.2619718,2.6 20.2619718,7.65352113 L20.2619718,18.3464789 C20.2619718,23.4 15.8676056,26 10.6309859,26 C5.3943662,26 1,23.4 1,18.3464789 L1,18.3464789 Z M2.3915493,7.8 L2.3915493,18.2 C2.3915493,22.7042254 6.12676056,24.6816901 10.6309859,24.6816901 C15.1352113,24.6816901 18.8704225,22.7042254 18.8704225,18.2 L18.8704225,7.8 C18.8704225,3.29577465 15.1352113,1.31830986 10.6309859,1.31830986 C6.12676056,1.31830986 2.3915493,3.29577465 2.3915493,7.8 L2.3915493,7.8 Z M31.3943662,18.3464789 L31.3943662,7.65352113 C31.3943662,2.6 35.7887324,0 40.9521127,0 C46.115493,0 50.4732394,2.6 50.4732394,7.65352113 L50.4732394,8.34929577 L49.0816901,8.34929577 L49.0816901,7.8 C49.0816901,3.29577465 45.3830986,1.31830986 40.9521127,1.31830986 C36.5211268,1.31830986 32.7859155,3.29577465 32.7859155,7.8 L32.7859155,18.2 C32.7859155,22.7042254 36.5211268,24.6816901 40.9521127,24.6816901 C45.3830986,24.6816901 49.1183099,22.7042254 49.1183099,18.2 L49.1183099,17.6873239 L50.5098592,17.6873239 L50.5098592,18.3464789 C50.5098592,23.4 46.115493,26 40.9521127,26 C35.7887324,26 31.3943662,23.4 31.3943662,18.3464789 L31.3943662,18.3464789 Z M61.2760563,7.65352113 C61.2760563,2.6 65.4873239,0 70.5042254,0 C75.5211268,0 79.7323944,2.6 79.7323944,7.65352113 L79.7323944,25.743662 L78.3408451,25.743662 L78.3408451,15.1971831 L62.6676056,15.1971831 L62.6676056,25.743662 L61.2760563,25.743662 L61.2760563,7.65352113 Z M78.3408451,7.8 C78.3408451,3.29577465 74.7887324,1.31830986 70.5042254,1.31830986 C66.2197183,1.31830986 62.6676056,3.29577465 62.6676056,7.8 L62.6676056,13.8788732 L78.3408451,13.8788732 L78.3408451,7.8 Z M108.185915,19.1887324 C108.185915,23.143662 104.707042,24.6816901 100.422535,24.6816901 C95.6253521,24.6816901 91.6704225,22.7042254 91.6704225,18.2 L91.6704225,17.6873239 L90.2788732,17.6873239 L90.2788732,18.3464789 C90.2788732,23.4 94.8929577,26 100.422535,26 C105.439437,26 109.577465,23.8760563 109.577465,19.1887324 C109.577465,14.2816901 104.816901,13.1464789 100.239437,12.1577465 C96.028169,11.2422535 92.2197183,10.5098592 92.2197183,6.81126761 C92.2197183,2.96619718 95.6985915,1.31830986 99.8366197,1.31830986 C104.377465,1.31830986 108.112676,3.29577465 108.112676,7.8 L108.112676,8.34929577 L109.504225,8.34929577 L109.504225,7.65352113 C109.504225,2.6 105.109859,0 99.8366197,0 C94.9661972,0 90.828169,2.23380282 90.828169,6.81126761 C90.828169,11.4253521 95.2225352,12.3774648 99.7633803,13.3661972 C104.047887,14.2816901 108.185915,15.1971831 108.185915,19.1887324 L108.185915,19.1887324 Z M136.016901,1.61126761 L126.642254,1.61126761 L126.642254,25.743662 L125.250704,25.743662 L125.250704,1.61126761 L115.876056,1.61126761 L115.876056,0.292957746 L136.016901,0.292957746 L136.016901,1.61126761 Z M144.952113,7.65352113 C144.952113,2.6 149.16338,0 154.180282,0 C159.197183,0 163.408451,2.6 163.408451,7.65352113 L163.408451,25.743662 L162.016901,25.743662 L162.016901,15.1971831 L146.343662,15.1971831 L146.343662,25.743662 L144.952113,25.743662 L144.952113,7.65352113 Z M162.016901,7.8 C162.016901,3.29577465 158.464789,1.31830986 154.180282,1.31830986 C149.895775,1.31830986 146.343662,3.29577465 146.343662,7.8 L146.343662,13.8788732 L162.016901,13.8788732 L162.016901,7.8 Z"></path>
</g>
        </svg>