<?xml version="1.0" encoding="utf-8"?>
<!-- Generator: Adobe Illustrator 22.1.0, SVG Export Plug-In . SVG Version: 6.00 Build 0)  -->
<svg version="1.1" id="brand" xmlns="http://www.w3.org/2000/svg" xmlns:xlink="http://www.w3.org/1999/xlink" x="0px" y="0px"
	 viewBox="0 0 500 203" style="enable-background:new 0 0 500 203;" xml:space="preserve">
<g>
	<path d="M8.5,117.3V85.4c0-15.1,13.1-22.9,28.8-22.9S66,70.3,66,85.4v31.9c0,15.1-13.1,22.9-28.8,22.9S8.5,132.4,8.5,117.3
		L8.5,117.3z M12.7,85.8v31.1c0,13.5,11.2,19.4,24.6,19.4s24.6-5.9,24.6-19.4V85.8c0-13.5-11.2-19.4-24.6-19.4S12.7,72.4,12.7,85.8
		L12.7,85.8z M99.3,117.3V85.4c0-15.1,13.1-22.9,28.5-22.9s28.4,7.8,28.4,22.9v2.1h-4.2v-1.6c0-13.5-11-19.4-24.3-19.4
		c-13.2,0-24.4,5.9-24.4,19.4v31.1c0,13.5,11.2,19.4,24.4,19.4c13.2,0,24.4-5.9,24.4-19.4v-1.5h4.2v2c0,15.1-13.1,22.9-28.5,22.9
		S99.3,132.4,99.3,117.3L99.3,117.3z M188.5,85.4c0-15.1,12.6-22.9,27.6-22.9c15,0,27.6,7.8,27.6,22.9v54h-4.2v-31.5h-46.8v31.5
		h-4.2V85.4z M239.5,85.8c0-13.5-10.6-19.4-23.4-19.4s-23.4,5.9-23.4,19.4V104h46.8V85.8z M328.6,119.8c0,11.8-10.4,16.4-23.2,16.4
		c-14.3,0-26.1-5.9-26.1-19.4v-1.5h-4.2v2c0,15.1,13.8,22.9,30.3,22.9c15,0,27.3-6.3,27.3-20.3c0-14.7-14.2-18-27.9-21
		c-12.6-2.7-23.9-4.9-23.9-16c0-11.5,10.4-16.4,22.7-16.4c13.6,0,24.7,5.9,24.7,19.4v1.6h4.2v-2.1c0-15.1-13.1-22.9-28.9-22.9
		c-14.5,0-26.9,6.7-26.9,20.3c0,13.8,13.1,16.6,26.7,19.6C316.2,105.2,328.6,107.9,328.6,119.8L328.6,119.8z M411.7,67.3h-28v72.1
		h-4.2V67.3h-28v-3.9h60.1V67.3z M438.4,85.4c0-15.1,12.6-22.9,27.6-22.9c15,0,27.6,7.8,27.6,22.9v54h-4.2v-31.5h-46.8v31.5h-4.2
		V85.4z M489.3,85.8c0-13.5-10.6-19.4-23.4-19.4s-23.4,5.9-23.4,19.4V104h46.8V85.8z"/>
</g>
</svg>
