<svg xmlns="http://www.w3.org/2000/svg" width="34.65mm" height="34.65mm" viewBox="0 0 98.21 98.22">
<defs><style>.cls-1{fill:#ff036a;}</style></defs>
<title>person2</title><g id="Layer_2" data-name="Layer 2"><g id="Layer_1-2" data-name="Layer 1">
<path class="cls-1" d="M64.67,18.6a1.87,1.87,0,0,0-1.82,1.82V48A13.92,13.92,0,0,1,35,48V20.42a1.83,1.83,0,0,0-3.65,0V48a17.5,17.5,0,1,0,35,0V20.42a1.69,1.69,0,0,0-1.7-1.82Z"/>
<path class="cls-1" d="M48.87,31.24a1.87,1.87,0,0,0,1.82-1.83v-9a1.83,1.83,0,0,0-3.65,0v9A1.79,1.79,0,0,0,48.87,31.24Z"/>
<path class="cls-1" d="M56.53,31.24a1.87,1.87,0,0,0,1.82-1.83v-9a1.83,1.83,0,0,0-3.65,0v9A1.79,1.79,0,0,0,56.53,31.24Z"/>
<path class="cls-1" d="M41,31.24a1.87,1.87,0,0,0,1.82-1.83v-9a1.83,1.83,0,0,0-3.65,0v9A1.73,1.73,0,0,0,41,31.24Z"/>
<path class="cls-1" d="M45.7,43.27a2.07,2.07,0,1,1-4.13,0,2.07,2.07,0,0,1,4.13,0"/>
<path class="cls-1" d="M56.53,43.27a2.07,2.07,0,0,1-4.14,0,2.07,2.07,0,0,1,4.14,0"/>
<path class="cls-1" d="M76.83,85V74.88a7.19,7.19,0,0,0-7.17-7.17H62.24a7.66,7.66,0,0,0-6,2.92,9.51,9.51,0,0,1-7.17,3.28,9,9,0,0,1-7.17-3.53,7.56,7.56,0,0,0-6-2.79H28.69a7.18,7.18,0,0,0-7.17,7.17V84.85a45.42,45.42,0,0,1,5-75.37A45.46,45.46,0,0,1,94.69,48.86,46,46,0,0,1,76.82,85Zm-10,5.83V80.71a1.83,1.83,0,0,0-3.65,0V92.14a46.49,46.49,0,0,1-28.2,0V80.72a1.83,1.83,0,1,0-3.65,0V90.81c-1.7-.73-3.4-1.58-5-2.43-.49-.25-1-.61-1.46-.85V74.88a3.52,3.52,0,0,1,3.52-3.52h7.3a3.7,3.7,0,0,1,3.16,1.58,12.84,12.84,0,0,0,19.93,0A3.91,3.91,0,0,1,62,71.48h7.41A3.53,3.53,0,0,1,72.94,75V87.64c-.49.25-.85.61-1.34.85-1.34.73-3,1.58-4.74,2.31Zm6.8-84.24a49.13,49.13,0,0,0-49.11,85.1,51.17,51.17,0,0,0,7.78,3.64c.13.13.24.13.49.13a48.92,48.92,0,0,0,32.57,0c.12,0,.37-.13.48-.13a50.29,50.29,0,0,0,7.78-3.64,49.14,49.14,0,0,0,0-85.1Z"/>
<path class="cls-1" d="M52.63,53a5.36,5.36,0,0,1-7.53,0,1.81,1.81,0,0,0-2.56,2.55,9,9,0,0,0,6.32,2.68,8.53,8.53,0,0,0,6.32-2.68A1.8,1.8,0,0,0,52.63,53Z"/></g></g></svg>