<svg xmlns="http://www.w3.org/2000/svg" width="34.36mm" height="34.32mm" viewBox="0 0 97.39 97.28"><defs><style>.cls-1{fill:#19f3be;}</style></defs><title>person</title>
<g id="Layer_2" data-name="Layer 2"><g id="Layer_1-2" data-name="Layer 1">
<path class="cls-1" d="M77.87,83.05v-10a7.12,7.12,0,0,0-7.11-7.11H63.4a7.57,7.57,0,0,0-5.9,2.89,9.68,9.68,0,0,1-7.24,3.25,8.9,8.9,0,0,1-7.11-3.49,7.47,7.47,0,0,0-5.9-2.78H30a7.12,7.12,0,0,0-7.11,7.11V85.34a45,45,0,1,1,71-36.76,45.9,45.9,0,0,1-16,34.47Zm-6.63,4.58a29.55,29.55,0,0,1-3.38,1.68V78.71a1.81,1.81,0,0,0-3.62,0V90.76a46.16,46.16,0,0,1-28,1.08v-13a1.81,1.81,0,0,0-3.62,0V90.76a48.28,48.28,0,0,1-6.26-3V72.92a3.49,3.49,0,0,1,3.49-3.49h7.23A3.68,3.68,0,0,1,40.26,71,12.75,12.75,0,0,0,60,71a3.87,3.87,0,0,1,3.13-1.45h7.36A3.5,3.5,0,0,1,74,73.05V85.83a12.87,12.87,0,0,1-2.77,1.8ZM73,6.51A48.71,48.71,0,0,0,24.35,90.89,46.48,46.48,0,0,0,33.75,95a.68.68,0,0,0,.48.13A49.71,49.71,0,0,0,48.7,97.28,48.48,48.48,0,0,0,73,90.77a40.54,40.54,0,0,0,3.74-2.41c.13-.12.37-.24.48-.36A48.59,48.59,0,0,0,73,6.51Z"/><path class="cls-1" d="M50.14,60.15A13.74,13.74,0,0,1,36.4,46.41v-8.8a4.27,4.27,0,0,1,4.22-4.22H49.9a7.57,7.57,0,0,0,5.67-2.53,7.69,7.69,0,0,0,5.9,2.77h2.41V46.41A13.73,13.73,0,0,1,50.14,60.15Zm9.53-42.92H39.05A14,14,0,0,0,25.19,31.1V49.18a3.75,3.75,0,0,1-3.74,3.74,1.81,1.81,0,1,0,0,3.61,7.31,7.31,0,0,0,7.36-7.35V31.1A10.24,10.24,0,0,1,39.05,20.85H59.67a4.27,4.27,0,0,1,4.22,4.22V30H61.48a4.06,4.06,0,0,1-4.1-4.09,1.81,1.81,0,0,0-3.62,0,3.8,3.8,0,0,1-3.85,3.85H40.63a7.82,7.82,0,0,0-7.84,7.84v8.8a17.36,17.36,0,0,0,34.71,0V25.07a7.82,7.82,0,0,0-7.83-7.84Z"/><path class="cls-1" d="M46.89,41.71a2.05,2.05,0,0,1-4.1,0,2.05,2.05,0,1,1,4.1,0"/><path class="cls-1" d="M57.74,41.71a2.05,2.05,0,0,1-4.1,0,2.05,2.05,0,1,1,4.1,0"/><path class="cls-1" d="M53.88,51.35a5.31,5.31,0,0,1-7.47,0,1.79,1.79,0,0,0-2.54,2.53,9,9,0,0,0,6.27,2.65,8.48,8.48,0,0,0,6.27-2.65,1.79,1.79,0,0,0-2.53-2.53Z"/></g></g></svg>